
                <svg id="trend-chart" width="660" height="400" title="Stack Overflow Trends Chart" version="1.1" xmlns="http://www.w3.org/2000/svg"><g></g><g class="chart-area" transform="translate(100, 20)"><g transform="translate(0,300)" fill="none" font-size="10" font-family="sans-serif" text-anchor="middle"><path class="domain" stroke="#000" d="M0.5,6V0.5H410.5V6"></path><g class="tick" opacity="1" transform="translate(19.27121723996724,0)"><line stroke="#000" y2="6" x1="0.5" x2="0.5"></line><text fill="#000" y="9" x="0.5" dy="0.71em" style="font-size: 12px;">2009</text></g><g class="tick" opacity="1" transform="translate(65.23251945126945,0)"><line stroke="#000" y2="6" x1="0.5" x2="0.5"></line><text fill="#000" y="9" x="0.5" dy="0.71em" style="font-size: 12px;">2010</text></g><g class="tick" opacity="1" transform="translate(111.19382166257166,0)"><line stroke="#000" y2="6" x1="0.5" x2="0.5"></line><text fill="#000" y="9" x="0.5" dy="0.71em" style="font-size: 12px;">2011</text></g><g class="tick" opacity="1" transform="translate(157.15512387387386,0)"><line stroke="#000" y2="6" x1="0.5" x2="0.5"></line><text fill="#000" y="9" x="0.5" dy="0.71em" style="font-size: 12px;">2012</text></g><g class="tick" opacity="1" transform="translate(203.24234746109747,0)"><line stroke="#000" y2="6" x1="0.5" x2="0.5"></line><text fill="#000" y="9" x="0.5" dy="0.71em" style="font-size: 12px;">2013</text></g><g class="tick" opacity="1" transform="translate(249.20364967239968,0)"><line stroke="#000" y2="6" x1="0.5" x2="0.5"></line><text fill="#000" y="9" x="0.5" dy="0.71em" style="font-size: 12px;">2014</text></g><g class="tick" opacity="1" transform="translate(295.16495188370186,0)"><line stroke="#000" y2="6" x1="0.5" x2="0.5"></line><text fill="#000" y="9" x="0.5" dy="0.71em" style="font-size: 12px;">2015</text></g><g class="tick" opacity="1" transform="translate(341.1262540950041,0)"><line stroke="#000" y2="6" x1="0.5" x2="0.5"></line><text fill="#000" y="9" x="0.5" dy="0.71em" style="font-size: 12px;">2016</text></g><g class="tick" opacity="1" transform="translate(387.2134776822277,0)"><line stroke="#000" y2="6" x1="0.5" x2="0.5"></line><text fill="#000" y="9" x="0.5" dy="0.71em" style="font-size: 12px;">2017</text></g></g><g class="grid-lines" transform="translate(0,300)" fill="none" font-size="10" font-family="sans-serif" text-anchor="middle"><path class="domain" stroke="#000" d="M0.5,-300V0.5H410.5V-300"></path><g class="tick" opacity="1" transform="translate(19.27121723996724,0)"><line stroke="#000" y2="-300" x1="0.5" x2="0.5" style="stroke: #ccc; fill: none;"></line></g><g class="tick" opacity="1" transform="translate(65.23251945126945,0)"><line stroke="#000" y2="-300" x1="0.5" x2="0.5" style="stroke: #ccc; fill: none;"></line></g><g class="tick" opacity="1" transform="translate(111.19382166257166,0)"><line stroke="#000" y2="-300" x1="0.5" x2="0.5" style="stroke: #ccc; fill: none;"></line></g><g class="tick" opacity="1" transform="translate(157.15512387387386,0)"><line stroke="#000" y2="-300" x1="0.5" x2="0.5" style="stroke: #ccc; fill: none;"></line></g><g class="tick" opacity="1" transform="translate(203.24234746109747,0)"><line stroke="#000" y2="-300" x1="0.5" x2="0.5" style="stroke: #ccc; fill: none;"></line></g><g class="tick" opacity="1" transform="translate(249.20364967239968,0)"><line stroke="#000" y2="-300" x1="0.5" x2="0.5" style="stroke: #ccc; fill: none;"></line></g><g class="tick" opacity="1" transform="translate(295.16495188370186,0)"><line stroke="#000" y2="-300" x1="0.5" x2="0.5" style="stroke: #ccc; fill: none;"></line></g><g class="tick" opacity="1" transform="translate(341.1262540950041,0)"><line stroke="#000" y2="-300" x1="0.5" x2="0.5" style="stroke: #ccc; fill: none;"></line></g><g class="tick" opacity="1" transform="translate(387.2134776822277,0)"><line stroke="#000" y2="-300" x1="0.5" x2="0.5" style="stroke: #ccc; fill: none;"></line></g></g><text x="205" y="360" class="axis-label x-axis-label" style="text-anchor: middle; font-weight: bold;">Year</text><g fill="none" font-size="10" font-family="sans-serif" text-anchor="end"><path class="domain" stroke="#000" d="M-6,300.5H0.5V0.5H-6"></path><g class="tick" opacity="1" transform="translate(0,300)"><line stroke="#000" x2="-6" y1="0.5" y2="0.5"></line><text fill="#000" x="-9" y="0.5" dy="0.32em" style="font-size: 12px;">0.00%</text></g><g class="tick" opacity="1" transform="translate(0,270)"><line stroke="#000" x2="-6" y1="0.5" y2="0.5"></line><text fill="#000" x="-9" y="0.5" dy="0.32em" style="font-size: 12px;">0.20%</text></g><g class="tick" opacity="1" transform="translate(0,240)"><line stroke="#000" x2="-6" y1="0.5" y2="0.5"></line><text fill="#000" x="-9" y="0.5" dy="0.32em" style="font-size: 12px;">0.40%</text></g><g class="tick" opacity="1" transform="translate(0,210)"><line stroke="#000" x2="-6" y1="0.5" y2="0.5"></line><text fill="#000" x="-9" y="0.5" dy="0.32em" style="font-size: 12px;">0.60%</text></g><g class="tick" opacity="1" transform="translate(0,180)"><line stroke="#000" x2="-6" y1="0.5" y2="0.5"></line><text fill="#000" x="-9" y="0.5" dy="0.32em" style="font-size: 12px;">0.80%</text></g><g class="tick" opacity="1" transform="translate(0,150)"><line stroke="#000" x2="-6" y1="0.5" y2="0.5"></line><text fill="#000" x="-9" y="0.5" dy="0.32em" style="font-size: 12px;">1.00%</text></g><g class="tick" opacity="1" transform="translate(0,120)"><line stroke="#000" x2="-6" y1="0.5" y2="0.5"></line><text fill="#000" x="-9" y="0.5" dy="0.32em" style="font-size: 12px;">1.20%</text></g><g class="tick" opacity="1" transform="translate(0,90)"><line stroke="#000" x2="-6" y1="0.5" y2="0.5"></line><text fill="#000" x="-9" y="0.5" dy="0.32em" style="font-size: 12px;">1.40%</text></g><g class="tick" opacity="1" transform="translate(0,60)"><line stroke="#000" x2="-6" y1="0.5" y2="0.5"></line><text fill="#000" x="-9" y="0.5" dy="0.32em" style="font-size: 12px;">1.60%</text></g><g class="tick" opacity="1" transform="translate(0,30)"><line stroke="#000" x2="-6" y1="0.5" y2="0.5"></line><text fill="#000" x="-9" y="0.5" dy="0.32em" style="font-size: 12px;">1.80%</text></g><g class="tick" opacity="1" transform="translate(0,0)"><line stroke="#000" x2="-6" y1="0.5" y2="0.5"></line><text fill="#000" x="-9" y="0.5" dy="0.32em" style="font-size: 12px;">2.00%</text></g></g><g class="grid-lines" fill="none" font-size="10" font-family="sans-serif" text-anchor="end"><path class="domain" stroke="#000" d="M410,300.5H0.5V0.5H410"></path><g class="tick" opacity="1" transform="translate(0,300)"><line stroke="#000" x2="410" y1="0.5" y2="0.5" style="stroke: #ccc; fill: none;"></line></g><g class="tick" opacity="1" transform="translate(0,270)"><line stroke="#000" x2="410" y1="0.5" y2="0.5" style="stroke: #ccc; fill: none;"></line></g><g class="tick" opacity="1" transform="translate(0,240)"><line stroke="#000" x2="410" y1="0.5" y2="0.5" style="stroke: #ccc; fill: none;"></line></g><g class="tick" opacity="1" transform="translate(0,210)"><line stroke="#000" x2="410" y1="0.5" y2="0.5" style="stroke: #ccc; fill: none;"></line></g><g class="tick" opacity="1" transform="translate(0,180)"><line stroke="#000" x2="410" y1="0.5" y2="0.5" style="stroke: #ccc; fill: none;"></line></g><g class="tick" opacity="1" transform="translate(0,150)"><line stroke="#000" x2="410" y1="0.5" y2="0.5" style="stroke: #ccc; fill: none;"></line></g><g class="tick" opacity="1" transform="translate(0,120)"><line stroke="#000" x2="410" y1="0.5" y2="0.5" style="stroke: #ccc; fill: none;"></line></g><g class="tick" opacity="1" transform="translate(0,90)"><line stroke="#000" x2="410" y1="0.5" y2="0.5" style="stroke: #ccc; fill: none;"></line></g><g class="tick" opacity="1" transform="translate(0,60)"><line stroke="#000" x2="410" y1="0.5" y2="0.5" style="stroke: #ccc; fill: none;"></line></g><g class="tick" opacity="1" transform="translate(0,30)"><line stroke="#000" x2="410" y1="0.5" y2="0.5" style="stroke: #ccc; fill: none;"></line></g><g class="tick" opacity="1" transform="translate(0,0)"><line stroke="#000" x2="410" y1="0.5" y2="0.5" style="stroke: #ccc; fill: none;"></line></g></g><g class="lines"><path class="line" d="M3.9035626535626538,300L7.681203931203931,300L11.584766584766585,300L15.367654586404585,300L19.27121723996724,300L23.174779893529895,300L26.70057841932842,300L30.598894348894348,300L34.37653562653563,300L38.28009828009828,300L42.05773955773956,300L45.96130221130221,300L49.86486486486487,300L53.64250614250615,300L57.546068796068795,300L61.328956797706795,300L65.23251945126945,300L69.1360821048321,300L72.66188063063062,300L76.56019656019656,300L80.33783783783784,300L84.2414004914005,300L88.01904176904176,300L91.92260442260442,300L95.82616707616708,300L99.60380835380836,300L103.50737100737102,300L107.29025900900902,300L111.19382166257166,300L115.09738431613431,300L118.62318284193283,300L122.52149877149877,300L126.29914004914005,300L130.20270270270268,300L133.98034398034397,300L137.88390663390663,299.7255L141.7874692874693,299.856L145.5651105651106,300L149.46867321867322,300L153.25156122031123,300L157.15512387387386,299.874L161.05868652743652,300L164.71040642915642,300L168.60872235872236,300L172.38636363636365,299.7825L176.28992628992629,298.542L180.06756756756758,298.9695L183.9711302211302,297.819L187.87469287469287,296.217L191.65233415233416,296.7645L195.5558968058968,293.6385L199.3387848075348,291.7575L203.24234746109747,281.7405L207.14591011466013,283.2435L210.67170864045866,282.0675L214.5700245700246,280.527L218.34766584766584,268.0785L222.25122850122852,245.0865L226.02886977886976,260.445L229.93243243243245,259.7985L233.8359950859951,258.2175L237.61363636363637,267.11400000000003L241.51719901719903,270.432L245.30008701883702,263.34L249.20364967239968,256.968L253.10721232596234,251.679L256.63301085176084,242.934L260.5313267813268,234.29700000000003L264.3089680589681,232.3395L268.21253071253074,229.2615L271.99017199017203,227.9235L275.89373464373466,218.3895L279.7972972972973,217.6695L283.5749385749386,215.865L287.4785012285012,209.2065L291.26138923013923,206.0505L295.16495188370186,203.22L299.06851453726455,197.6205L302.59431306306305,210.71699999999998L306.492628992629,205.839L310.27027027027026,212.53500000000003L314.17383292383295,211.923L317.95147420147424,200.466L321.8550368550369,196.73250000000002L325.7585995085995,203.97899999999998L329.5362407862408,196.5405L333.4398034398034,196.6695L337.22269144144144,175.7835L341.1262540950041,175.30200000000002L345.02981674856676,179.67450000000002L348.68153665028666,170.3265L352.57985257985257,170.48100000000002L356.35749385749386,145.64249999999998L360.2610565110565,160.1775L364.0386977886978,162.324L367.9422604422604,157.8375L371.8458230958231,169.5045L375.62346437346434,162.627L379.52702702702703,154.5885L383.30991502866505,147.309L387.2134776822277,139.191L391.1170403357903,141.927L394.64283886158887,143.0955L398.5411547911548,142.6245L402.3187960687961,140.90550000000002L406.2223587223587,142.85549999999998L410,142.491" data-legend="laravel" style="stroke: rgb(31, 119, 180); fill: none;"></path><path class="line" d="M3.9035626535626538,300L7.681203931203931,298.995L11.584766584766585,300L15.367654586404585,300L19.27121723996724,300L23.174779893529895,300L26.70057841932842,300L30.598894348894348,300L34.37653562653563,300L38.28009828009828,300L42.05773955773956,300L45.96130221130221,300L49.86486486486487,300L53.64250614250615,300L57.546068796068795,299.616L61.328956797706795,300L65.23251945126945,300L69.1360821048321,299.67L72.66188063063062,299.7165L76.56019656019656,299.409L80.33783783783784,299.1465L84.2414004914005,299.736L88.01904176904176,299.757L91.92260442260442,299.5365L95.82616707616708,300L99.60380835380836,299.5365L103.50737100737102,300L107.29025900900902,299.364L111.19382166257166,299.076L115.09738431613431,298.401L118.62318284193283,295.764L122.52149877149877,295.233L126.29914004914005,291.927L130.20270270270268,289.164L133.98034398034397,288.885L137.88390663390663,281.595L141.7874692874693,275.0655L145.5651105651106,275.7465L149.46867321867322,267.321L153.25156122031123,261.699L157.15512387387386,255.9375L161.05868652743652,259.1505L164.71040642915642,254.5455L168.60872235872236,252.8025L172.38636363636365,251.37900000000002L176.28992628992629,251.622L180.06756756756758,241.395L183.9711302211302,241.494L187.87469287469287,234.5595L191.65233415233416,246.9555L195.5558968058968,245.223L199.3387848075348,253.46699999999998L203.24234746109747,246.888L207.14591011466013,246.5085L210.67170864045866,242.85L214.5700245700246,247.785L218.34766584766584,246.8835L222.25122850122852,246.19650000000001L226.02886977886976,235.734L229.93243243243245,242.1135L233.8359950859951,238.791L237.61363636363637,236.5365L241.51719901719903,238.698L245.30008701883702,237.15449999999998L249.20364967239968,229.938L253.10721232596234,239.736L256.63301085176084,238.4205L260.5313267813268,237.2355L264.3089680589681,236.24099999999999L268.21253071253074,227.5515L271.99017199017203,230.238L275.89373464373466,234.156L279.7972972972973,228.699L283.5749385749386,233.235L287.4785012285012,233.7285L291.26138923013923,228.4065L295.16495188370186,224.76600000000002L299.06851453726455,227.8815L302.59431306306305,231.7425L306.492628992629,232.14600000000002L310.27027027027026,231.594L314.17383292383295,229.35000000000002L317.95147420147424,230.763L321.8550368550369,225.81L325.7585995085995,231.39L329.5362407862408,234.4125L333.4398034398034,231.114L337.22269144144144,228.02249999999998L341.1262540950041,219.999L345.02981674856676,216.645L348.68153665028666,232.329L352.57985257985257,231.6285L356.35749385749386,234.6855L360.2610565110565,234.65550000000002L364.0386977886978,236.41949999999997L367.9422604422604,239.304L371.8458230958231,240.80100000000002L375.62346437346434,242.517L379.52702702702703,239.4675L383.30991502866505,234.2775L387.2134776822277,240.11849999999998L391.1170403357903,240.74099999999999L394.64283886158887,241.4385L398.5411547911548,243.459L402.3187960687961,238.14600000000002L406.2223587223587,244.3785L410,246.3345" data-legend="symfony" style="stroke: rgb(255, 127, 14); fill: none;"></path><path class="line" d="M3.9035626535626538,300L7.681203931203931,300L11.584766584766585,300L15.367654586404585,300L19.27121723996724,300L23.174779893529895,300L26.70057841932842,300L30.598894348894348,300L34.37653562653563,300L38.28009828009828,300L42.05773955773956,299.5455L45.96130221130221,300L49.86486486486487,298.6545L53.64250614250615,297.552L57.546068796068795,298.8465L61.328956797706795,298.4325L65.23251945126945,299.34L69.1360821048321,296.694L72.66188063063062,299.1495L76.56019656019656,297.0405L80.33783783783784,297.1515L84.2414004914005,297.3465L88.01904176904176,297.324L91.92260442260442,295.1205L95.82616707616708,298.068L99.60380835380836,296.523L103.50737100737102,296.8185L107.29025900900902,296.6055L111.19382166257166,297.228L115.09738431613431,295.2L118.62318284193283,292.989L122.52149877149877,293.079L126.29914004914005,291.927L130.20270270270268,290.499L133.98034398034397,289.1775L137.88390663390663,289.974L141.7874692874693,291.0645L145.5651105651106,288.3825L149.46867321867322,289.467L153.25156122031123,281.2755L157.15512387387386,283.92L161.05868652743652,278.925L164.71040642915642,282.585L168.60872235872236,280.326L172.38636363636365,279.069L176.28992628992629,275.979L180.06756756756758,278.2305L183.9711302211302,277.9695L187.87469287469287,273.4005L191.65233415233416,275.3895L195.5558968058968,267.39300000000003L199.3387848075348,268.761L203.24234746109747,269.7825L207.14591011466013,276.048L210.67170864045866,279.051L214.5700245700246,275.8485L218.34766584766584,274.3215L222.25122850122852,273.93L226.02886977886976,272.553L229.93243243243245,273.7755L233.8359950859951,268.065L237.61363636363637,272.2905L241.51719901719903,271.3485L245.30008701883702,262.1865L249.20364967239968,266.367L253.10721232596234,265.419L256.63301085176084,266.3535L260.5313267813268,263.3055L264.3089680589681,272.6865L268.21253071253074,268.6815L271.99017199017203,268.839L275.89373464373466,274.5585L279.7972972972973,271.851L283.5749385749386,276.531L287.4785012285012,278.73L291.26138923013923,280.38L295.16495188370186,284.283L299.06851453726455,284.1285L302.59431306306305,282.222L306.492628992629,283.2105L310.27027027027026,281.1L314.17383292383295,284.526L317.95147420147424,285.792L321.8550368550369,286.1505L325.7585995085995,287.2035L329.5362407862408,287.088L333.4398034398034,285.663L337.22269144144144,289.281L341.1262540950041,289.3935L345.02981674856676,290.427L348.68153665028666,288.516L352.57985257985257,290.9145L356.35749385749386,290.6475L360.2610565110565,289.917L364.0386977886978,290.1495L367.9422604422604,292.26L371.8458230958231,289.6335L375.62346437346434,289.8225L379.52702702702703,289.035L383.30991502866505,293.556L387.2134776822277,290.1795L391.1170403357903,292.3545L394.64283886158887,293.847L398.5411547911548,291.8115L402.3187960687961,292.6515L406.2223587223587,293.97L410,293.8395" data-legend="yii" style="stroke: rgb(44, 160, 44); fill: none;"></path><path class="line" d="M3.9035626535626538,293.8035L7.681203931203931,288.945L11.584766584766585,278.0025L15.367654586404585,292.6935L19.27121723996724,290.7075L23.174779893529895,291.6075L26.70057841932842,289.89300000000003L30.598894348894348,288.243L34.37653562653563,292.5465L38.28009828009828,287.979L42.05773955773956,275.3805L45.96130221130221,280.998L49.86486486486487,284.2965L53.64250614250615,270.213L57.546068796068795,266.9295L61.328956797706795,258.4395L65.23251945126945,255.774L69.1360821048321,266.598L72.66188063063062,258.8355L76.56019656019656,254.106L80.33783783783784,255.8325L84.2414004914005,253.27949999999998L88.01904176904176,253.0335L91.92260442260442,255.84L95.82616707616708,255.55200000000002L99.60380835380836,263.6025L103.50737100737102,263.0895L107.29025900900902,252.0405L111.19382166257166,247.143L115.09738431613431,253.59300000000002L118.62318284193283,247.99349999999998L122.52149877149877,247.7025L126.29914004914005,239.2275L130.20270270270268,236.313L133.98034398034397,230.9625L137.88390663390663,228.5775L141.7874692874693,244.941L145.5651105651106,234.501L149.46867321867322,240.0435L153.25156122031123,242.2635L157.15512387387386,242.0085L161.05868652743652,228.366L164.71040642915642,230.22899999999998L168.60872235872236,235.96949999999998L172.38636363636365,239.3865L176.28992628992629,233.4375L180.06756756756758,238.404L183.9711302211302,228.711L187.87469287469287,235.00350000000003L191.65233415233416,235.87650000000002L195.5558968058968,234.4875L199.3387848075348,226.8915L203.24234746109747,222.88049999999998L207.14591011466013,223.692L210.67170864045866,225.504L214.5700245700246,232.22250000000003L218.34766584766584,231.582L222.25122850122852,234.5475L226.02886977886976,231.42149999999998L229.93243243243245,230.8125L233.8359950859951,236.484L237.61363636363637,241.7925L241.51719901719903,238.1985L245.30008701883702,237.3315L249.20364967239968,241.2L253.10721232596234,246.0585L256.63301085176084,234.7515L260.5313267813268,239.11950000000002L264.3089680589681,240.807L268.21253071253074,247.1715L271.99017199017203,253.2165L275.89373464373466,244.638L279.7972972972973,244.584L283.5749385749386,249.417L287.4785012285012,252.099L291.26138923013923,252.3645L295.16495188370186,248.2545L299.06851453726455,242.1825L302.59431306306305,244.4985L306.492628992629,247.69650000000001L310.27027027027026,241.6365L314.17383292383295,242.871L317.95147420147424,245.046L321.8550368550369,238.5255L325.7585995085995,239.64600000000002L329.5362407862408,242.838L333.4398034398034,243.639L337.22269144144144,238.4025L341.1262540950041,235.1415L345.02981674856676,236.33550000000002L348.68153665028666,240.252L352.57985257985257,243.024L356.35749385749386,240.0975L360.2610565110565,239.895L364.0386977886978,244.53300000000002L367.9422604422604,247.73399999999998L371.8458230958231,244.0305L375.62346437346434,244.9335L379.52702702702703,245.316L383.30991502866505,247.2465L387.2134776822277,247.815L391.1170403357903,243.3885L394.64283886158887,248.925L398.5411547911548,246.522L402.3187960687961,247.74L406.2223587223587,244.095L410,247.7715" data-legend="codeigniter" style="stroke: rgb(214, 39, 40); fill: none;"></path></g></g><g transform="translate(20, 150)"><text transform="rotate(-90)" x="-50" y="0" dy="1em" class="axis-label y-axis-label" style="text-anchor: middle; font-weight: bold;">% of Stack Overflow questions that month</text></g><g class="legend" transform="translate(530, 30)" style="font-size: 12px;"><text class="legend-title" style="font-weight: bold;">Tag</text><g class="legend-items" transform="translate(0,20)"><text y="0em" x="1em">laravel</text><text y="1em" x="1em">symfony</text><text y="2em" x="1em">codeigniter</text><text y="3em" x="1em">yii</text><circle cy="-0.25em" cx="0" r="0.4em" style="fill: rgb(31, 119, 180);"></circle><circle cy="0.75em" cx="0" r="0.4em" style="fill: rgb(255, 127, 14);"></circle><circle cy="1.75em" cx="0" r="0.4em" style="fill: rgb(214, 39, 40);"></circle><circle cy="2.75em" cx="0" r="0.4em" style="fill: rgb(44, 160, 44);"></circle></g><rect class="legend-box"></rect></g></svg>
            